<svg width="685" height="748" viewBox="0 0 685 748" fill="none" xmlns="http://www.w3.org/2000/svg">
<g filter="url(#filter0_d_14_134)">
<circle cx="391.78" cy="451.49" r="288.393" fill="#F25C04"/>
<path fill-rule="evenodd" clip-rule="evenodd" d="M338.719 148.116C329.811 141.894 321.361 135.211 314.509 126.915C303.546 113.78 297.15 99.2614 298.292 81.7474C299.891 56.6287 322.503 34.0449 346.713 34.9667C354.021 35.1971 357.676 33.3535 361.787 27.8228C372.293 14.4569 387.139 7.54348 403.355 3.62588C426.652 -2.1353 449.491 -1.44396 471.646 8.69571C487.634 16.07 499.054 27.8228 505.22 44.415C506.134 46.7195 506.591 47.6412 509.56 46.7195C539.708 37.2711 572.597 57.5505 578.536 89.1217C581.048 102.488 579.221 115.393 573.511 127.376C571.912 130.602 571.912 132.215 575.338 134.75C583.789 141.664 588.128 151.112 589.042 162.173C590.412 180.84 584.931 196.74 570.085 208.493C556.381 219.324 541.079 218.633 525.776 212.641C523.035 211.719 520.523 210.106 518.011 208.954C517.097 208.493 516.183 207.111 515.27 208.724C514.128 210.567 512.529 212.18 512.072 214.485C512.072 214.715 513.214 215.176 513.671 215.407C527.146 218.402 533.998 233.612 528.288 248.361C524.862 257.348 518.239 263.8 510.245 268.64C505.22 271.636 499.739 273.94 494.029 275.784C490.603 276.706 487.405 277.627 483.979 276.475C481.924 275.784 481.01 276.245 480.782 278.549C480.097 283.849 479.183 288.919 478.269 294.22C477.813 296.063 478.498 296.754 480.325 297.446C485.121 298.828 489.689 300.442 494.486 301.824C497.683 302.746 499.054 304.59 499.739 307.816C501.109 316.342 502.936 324.869 504.307 333.395C504.764 335.7 505.677 336.622 507.733 337.083C532.171 343.996 556.381 350.909 580.82 357.592C586.073 358.975 589.499 361.74 592.011 366.349C596.122 374.415 599.32 382.942 602.517 391.468C609.826 410.826 615.993 430.644 625.586 449.08C627.413 452.537 629.468 455.993 631.752 459.45C633.351 461.754 635.178 464.059 638.147 465.211C647.969 469.59 654.135 476.503 653.45 487.795C652.765 499.778 656.419 510.609 661.444 520.979C664.185 526.74 666.012 532.732 668.296 538.724C676.061 557.851 672.407 576.287 663.271 593.801C653.45 612.467 637.919 625.602 620.332 636.203C605.258 645.421 589.042 652.334 572.369 657.634C569.4 658.556 567.573 659.939 567.344 663.165C567.344 663.396 567.344 663.626 567.116 664.087C562.548 680.449 562.548 680.679 546.103 684.366C536.054 686.671 525.776 689.436 515.727 691.51C504.307 694.045 515.27 726.999 510.702 732.53C510.017 733.451 504.535 707.411 503.165 707.872C474.387 718.242 445.38 729.303 413.405 729.303C366.126 729.303 321.589 717.09 282.533 695.889C281.619 695.428 280.934 703.724 280.021 703.032C279.335 702.572 277.965 693.354 277.28 692.893C265.403 685.979 253.983 678.144 243.249 669.618C241.422 668.235 234.341 687.362 232.742 685.749C235.483 658.556 241.878 633.898 245.761 607.167C246.446 602.097 246.218 597.027 245.304 592.418C242.564 578.822 244.847 565.456 247.588 552.09C248.273 547.942 248.959 544.024 250.101 538.954C243.477 546.098 237.767 552.781 231.6 559.003C214.471 576.056 194.829 589.422 172.902 599.562C162.624 604.401 153.26 603.018 144.581 596.105C127.451 582.278 113.976 565.686 104.383 545.868C99.5869 535.958 100.5 526.049 102.784 515.909C105.525 503.926 109.865 492.404 115.118 481.342C116.031 479.499 116.031 478.347 114.889 476.503C110.778 470.051 106.896 463.598 105.525 455.993C104.612 451.845 105.297 448.158 107.124 444.24C111.007 436.175 116.26 428.801 121.513 421.657C122.427 420.504 123.34 419.122 124.254 417.739C113.747 415.896 103.47 414.282 93.4201 412.439C71.9508 408.291 50.9383 402.76 31.7529 391.929C25.1294 388.242 18.9627 384.094 14.1663 377.872C7.54281 369.345 7.7712 360.588 15.5367 352.983C23.0738 345.379 32.6665 341.692 42.4876 338.465C51.1667 335.469 60.0742 333.395 69.21 332.013C71.494 331.552 72.4076 330.63 73.3212 328.787C78.1175 318.186 83.8275 307.816 89.309 297.446C94.1053 288.458 101.186 282.467 110.322 278.319C127.68 270.253 145.952 266.796 164.68 264.261C170.39 263.57 176.1 263.109 181.81 262.648C183.637 262.418 184.322 261.957 184.322 260.113C185.007 247.669 193.915 239.834 205.335 240.756C216.069 241.678 223.607 251.587 222.008 263.109C221.551 265.875 222.693 266.566 224.977 267.027C242.335 270.944 259.008 276.475 274.311 285.693C281.391 289.841 287.786 294.68 293.724 300.211C301.49 307.355 306.286 316.112 309.027 326.252C309.712 329.017 310.854 331.782 311.539 334.548C311.996 336.391 312.91 336.622 314.509 336.391C320.904 335.009 327.07 333.626 333.466 332.243C334.836 332.013 335.978 331.321 335.293 329.708C334.151 326.943 335.978 325.791 337.805 324.408C341.688 321.873 345.342 318.877 349.225 316.342C350.595 315.421 350.824 314.499 350.139 312.655C339.176 287.767 333.009 261.726 329.354 234.995C327.984 225.085 330.953 215.176 332.78 205.497C333.237 203.193 333.237 200.888 332.552 198.584C330.496 191.21 328.898 183.605 327.299 176C325.015 165.861 328.441 158.256 335.75 151.573C335.978 150.882 337.12 149.499 338.719 148.116Z" fill="#000005"/>
<path fill-rule="evenodd" clip-rule="evenodd" d="M356.592 427.245C362.967 437.966 369.587 447.987 378.414 456.377C384.299 461.97 391.165 466.165 399.256 468.495C412.497 472.224 421.079 477.817 434.074 482.245C435.791 482.945 436.526 483.877 436.772 485.508C438.243 496.695 438.243 496.461 426.964 499.957C417.156 502.987 411.516 506.25 401.463 508.813C396.069 510.445 393.372 513.94 392.636 518.834C391.9 525.127 392.636 531.186 397.295 536.313C398.521 537.712 398.275 538.644 397.785 540.042C395.578 547.733 396.804 554.491 403.425 559.618C404.896 560.784 404.896 561.716 404.405 563.114C403.425 567.775 404.651 571.97 408.819 575C410.535 576.165 411.271 577.33 410.29 579.195C410.045 579.661 410.045 580.36 410.045 580.826C408.574 596.207 411.271 600.169 426.718 604.131C431.132 605.296 435.546 605.996 440.204 606.695C444.618 607.394 448.786 606.695 450.993 602.267C451.238 601.568 451.729 600.868 452.464 600.868C457.859 601.335 463.253 599.47 468.647 599.237C471.835 599.004 471.59 601.335 471.835 603.199C468.402 626.97 474.777 647.479 474.042 661.695C473.061 681.737 457.613 692.224 453.445 711.801C453.2 712.733 472.571 684.767 477.72 687.097C483.359 689.661 489.98 713.665 489.734 714.83C488.508 719.258 483.85 723.919 477.475 728.347C450.748 735.805 422.55 740 393.372 740C342.37 740 294.311 727.648 252.383 705.974C253.363 686.631 254.344 667.288 255.325 647.945C256.061 633.496 259.003 619.279 260.965 605.063C265.133 575 269.546 544.936 273.715 514.873C275.922 500.19 277.883 485.508 279.845 470.826C280.335 467.796 282.052 468.029 284.013 468.029C297.744 468.029 310.985 466.165 323 459.406C335.505 452.182 344.822 442.161 353.159 430.974C354.63 430.042 355.366 428.877 356.592 427.245Z" fill="white"/>
<path fill-rule="evenodd" clip-rule="evenodd" d="M561.85 373.565C546.776 388.314 540.838 396.61 538.097 406.75C540.381 403.523 542.208 401.449 543.807 399.145C549.745 391.31 555.683 383.474 563.449 377.483C568.017 374.026 568.245 374.026 570.758 379.326C575.782 389.697 579.437 400.758 583.548 411.589C590.628 430.947 597.252 450.304 607.53 468.279C602.276 466.205 599.079 462.518 587.431 444.312C589.486 452.839 593.369 460.213 599.079 466.896C605.017 473.349 612.554 477.266 620.091 481.184C626.715 484.641 630.826 488.789 630.369 496.854C630.141 503.537 630.369 510.22 631.968 516.673C635.394 530.269 635.622 544.787 641.561 557.923C642.017 558.845 641.789 559.766 642.018 561.149C643.388 556.54 642.474 551.931 641.789 547.553C640.876 543.174 639.962 539.026 639.962 534.417C641.332 538.104 643.388 541.561 644.073 545.479C645.9 554.236 646.585 563.223 646.585 572.211C646.357 585.807 640.419 596.868 631.511 606.547C615.98 623.37 597.48 635.583 575.097 641.114C569.387 642.497 568.474 642.958 562.535 641.805C559.566 641.114 558.196 639.962 558.424 636.736C559.566 615.535 554.77 594.333 552.943 573.363C551.801 561.84 548.603 551.009 544.035 540.409C543.578 539.257 543.122 537.874 542.436 536.491C553.171 536.03 563.449 533.726 573.498 531.882C591.77 528.656 607.53 534.878 621.69 545.94C622.147 546.4 622.604 546.861 623.974 548.014C622.375 543.866 620.091 541.331 617.579 539.026C613.696 535.569 608.9 533.035 604.332 530.96C602.505 530.269 601.363 529.117 601.363 527.043C601.134 521.973 605.702 516.212 610.499 515.521C614.153 514.829 618.036 515.06 622.832 515.06C619.635 512.525 616.894 512.755 614.153 512.525C604.789 512.064 596.338 515.521 587.659 519.208C575.097 524.508 562.078 525.199 549.288 520.59C543.35 518.516 539.696 513.907 536.27 509.068C518.226 482.567 516.171 454.222 528.276 424.724C528.504 424.033 528.732 423.342 529.189 422.881C529.646 422.19 530.331 421.268 529.189 420.807C528.047 420.116 527.819 421.268 527.362 421.959C516.856 436.708 509.319 452.839 505.208 470.583C504.751 472.657 504.294 474.731 503.837 476.805C503.609 465.514 502.924 453.991 507.948 442.93C504.751 444.773 503.38 447.539 502.695 452.839C502.238 456.526 502.238 460.444 500.64 464.592C499.954 459.061 499.498 453.991 498.812 448.921C496.3 461.826 495.615 474.731 496.3 487.636C496.757 496.854 496.072 501.694 490.59 509.299C488.763 507.685 487.849 505.611 486.707 503.537C482.368 495.241 479.399 489.941 475.744 481.645C472.09 473.579 468.892 465.974 470.72 457.448C471.405 453.991 473.004 449.382 469.578 446.847C465.923 444.312 461.812 446.847 458.386 448.691C451.077 452.378 446.51 458.6 444.454 467.357C441.942 457.909 439.658 449.382 436.232 441.086C433.262 433.712 429.608 426.568 424.812 420.116C420.929 414.815 423.441 401.68 428.923 397.301C434.176 393.153 440.114 389.927 445.824 386.47C457.473 379.557 469.349 373.104 480.312 364.808C483.738 362.043 487.393 359.508 489.448 355.59C490.133 354.438 490.819 353.977 492.189 354.438C515.485 360.43 538.554 367.113 561.85 373.565Z" fill="white"/>
<path fill-rule="evenodd" clip-rule="evenodd" d="M452.22 284.383C438.288 296.366 424.584 308.81 409.738 319.871C405.17 323.328 400.374 326.093 395.806 329.32C381.645 338.998 357.663 334.62 346.243 322.867C342.589 319.18 340.762 314.11 339.163 309.501C331.398 288.531 325.916 266.869 322.49 244.746C321.348 236.45 322.947 228.153 324.546 220.088C327.743 204.878 328.885 189.438 330.484 173.998C330.941 169.62 332.083 165.241 332.768 160.863C333.225 158.328 334.367 157.176 336.651 156.715C371.367 150.493 405.398 150.493 438.059 165.702C446.51 169.62 454.275 174.229 461.812 179.76C463.868 181.373 464.325 182.755 463.868 185.06C459.985 204.417 459.3 223.775 462.269 243.133C463.183 248.894 464.325 249.124 468.893 245.437C473.918 241.059 477.572 235.528 482.368 230.919C483.739 229.536 485.337 228.384 486.708 227.232C488.078 226.079 488.992 225.619 489.905 227.693C490.59 229.306 492.189 229.767 493.788 229.536C504.294 228.845 512.288 238.985 508.634 251.429C506.578 258.112 502.239 262.951 496.986 267.099C490.819 271.938 483.739 274.704 476.201 276.778C473.004 277.7 470.035 276.317 467.294 274.473C463.64 272.169 460.899 273.552 460.899 277.7C460.442 290.374 457.016 302.588 455.417 315.032C454.732 320.102 453.59 325.172 454.504 330.242C454.732 331.624 453.59 332.546 452.905 333.468C446.51 341.303 438.973 347.755 430.522 353.747C438.288 339.229 442.855 323.789 447.195 308.349C444.911 310.423 444.454 313.419 443.312 316.184C438.516 328.859 433.948 341.764 426.411 353.286C423.213 358.356 419.331 362.504 414.306 365.269C409.738 367.804 405.398 370.57 401.059 373.566C394.435 378.405 386.67 379.327 378.447 379.788C378.904 376.1 380.731 372.874 379.589 368.957C377.077 370.339 377.077 373.335 375.707 375.409C374.793 376.792 375.478 379.557 372.966 379.557C370.454 379.327 367.256 379.096 366.114 376.792C361.774 368.035 355.608 359.969 355.836 349.138C357.207 348.908 357.892 350.06 358.805 350.751C364.744 355.13 371.367 358.126 378.676 359.508C383.701 360.43 388.269 359.508 392.608 356.052C416.818 335.772 436.232 311.575 452.22 284.383Z" fill="#EDCBAA"/>
<path fill-rule="evenodd" clip-rule="evenodd" d="M338.934 206.031C341.675 211.561 340.989 211.792 345.101 212.944C349.212 214.096 365.885 212.714 365.885 212.714C365.885 212.714 368.854 211.1 368.625 209.948C368.397 208.796 364.058 201.422 364.058 201.422L344.187 200.961C344.187 201.191 342.817 202.804 338.934 206.031Z" fill="white"/>
<path fill-rule="evenodd" clip-rule="evenodd" d="M404.484 210.179C406.768 214.788 412.935 217.553 412.935 217.553L432.349 217.784L440.114 213.175C440.114 213.175 433.491 206.722 429.836 205.339C426.182 203.957 411.793 203.265 409.966 203.726C408.138 203.957 404.484 210.179 404.484 210.179Z" fill="white"/>
<path fill-rule="evenodd" clip-rule="evenodd" d="M552.714 182.064C543.807 186.442 537.183 183.447 531.473 176.994C523.022 167.546 518.454 155.563 514.343 143.81C511.831 136.666 510.004 129.292 508.405 121.456C506.349 124.452 504.979 127.448 502.467 129.522C498.584 132.748 495.158 132.518 491.732 128.831C487.621 123.991 488.078 118.461 488.991 112.699C490.133 105.786 489.676 105.325 483.053 106.708C472.318 109.012 462.04 106.708 451.306 104.403C428.238 99.1031 417.731 83.4327 413.849 61.5402C413.392 58.7749 412.935 56.24 412.25 52.5528C405.855 63.6143 400.601 74.4453 396.49 85.7372C394.892 90.3461 392.151 93.8028 388.268 97.0291C383.472 100.947 377.533 99.1031 371.367 100.716C378.447 92.4201 380.959 83.2022 383.472 73.7539C381.188 73.9844 381.188 75.5975 380.731 76.7497C375.249 90.5765 364.515 98.8726 350.811 102.329C342.817 104.403 334.823 101.177 328.2 96.1073C323.632 92.6506 320.434 88.0416 317.236 83.2023C316.323 82.05 315.638 80.6673 314.496 79.2847C314.267 86.4285 321.119 98.4117 329.57 106.708C321.576 107.169 313.582 102.099 307.415 91.9592C298.28 112.93 308.329 128.139 321.348 143.118C299.878 127.679 287.545 104.173 294.397 81.1282C299.65 63.3838 317.008 49.557 334.138 49.7874C334.823 49.7874 335.508 49.7874 336.193 49.7874C341.903 50.4788 341.903 50.4788 341.447 56.0095C340.533 66.8405 341.218 71.4495 344.873 76.5193C345.786 76.5193 345.558 75.8279 345.558 75.3671C342.36 54.6268 350.354 38.9564 367.941 28.5863C396.262 11.9941 426.182 9.68967 456.559 23.0556C472.775 30.1995 483.51 43.1045 487.392 61.0793C488.763 66.8405 488.078 72.8321 487.621 78.8238C487.621 79.7455 487.164 81.1282 488.306 81.3587C489.905 81.8196 489.905 79.976 490.133 79.2847C491.275 75.3671 492.417 71.6799 492.189 67.5319C492.189 64.536 493.559 62.9229 496.3 62.0011C513.887 55.7791 529.417 59.6967 542.893 71.6799C562.535 89.1939 563.449 114.543 551.344 136.666C550.43 138.51 549.288 138.51 547.689 138.51C542.665 138.51 537.868 139.431 532.387 141.966C536.498 143.349 539.695 143.118 542.893 142.888C551.344 142.658 557.282 146.806 562.078 153.028C577.609 173.537 565.733 209.026 541.294 215.94C539.924 216.401 538.553 216.401 536.955 216.401C550.658 209.257 554.998 197.734 552.714 182.064Z" fill="white"/>
<path fill-rule="evenodd" clip-rule="evenodd" d="M213.316 365.961C148.908 365.039 129.266 362.273 71.253 341.072C68.7407 340.151 68.7407 339.229 69.6543 336.924C74.4506 326.324 77.1914 319.641 82.9013 309.501C87.2408 301.666 94.0928 297.057 101.63 293.37C117.618 285.765 134.747 282.539 151.877 280.465C184.766 276.547 216.057 282.539 245.977 296.366C250.545 298.44 254.656 301.435 259.224 303.74C283.206 315.493 283.206 339.92 281.607 358.356C281.379 361.121 279.78 361.582 277.496 361.813C270.644 362.504 263.564 363.656 256.712 364.117C242.323 365.5 227.477 365.73 213.316 365.961Z" fill="#AFB0B0"/>
<path fill-rule="evenodd" clip-rule="evenodd" d="M113.278 438.09C119.673 448.921 129.495 454.683 140.458 460.213C139.544 457.909 138.174 456.987 137.032 455.835C132.007 451.456 126.982 447.308 121.957 442.93C121.044 442.239 120.359 441.086 119.445 440.164C114.649 433.942 116.933 427.951 124.698 426.799C125.612 426.568 126.525 426.568 128.581 426.107C124.241 432.099 128.353 435.095 131.778 438.551C142.97 449.382 154.847 458.831 167.865 467.357C174.946 471.966 181.797 472.658 189.563 469.431C200.526 465.053 211.032 459.983 221.31 453.991C222.452 453.3 223.594 452.609 225.193 451.687C224.965 464.131 224.736 476.114 222.681 487.867C222.224 490.171 220.625 491.324 218.798 491.554C209.662 492.246 201.44 496.394 193.217 500.081C189.563 501.694 185.68 503.307 182.026 505.381C189.335 504.69 196.415 502.385 203.495 500.081C206.464 499.159 210.347 496.163 212.403 498.007C214.001 499.62 211.718 503.768 211.032 506.994C209.434 512.986 207.606 518.977 205.779 524.969C203.495 532.113 199.384 538.104 194.131 543.174C186.137 551.24 178.372 559.306 169.007 565.989C167.408 567.141 166.038 568.523 167.408 570.367C169.007 572.211 170.606 571.058 171.976 569.906C181.569 562.993 190.02 554.466 198.242 545.94C199.384 544.787 200.298 543.635 201.668 542.713C198.699 550.779 192.761 557.001 188.421 564.375C192.532 562.762 195.273 559.536 197.785 556.31C203.724 548.705 207.606 540.178 209.89 530.73C212.403 520.59 214.915 510.451 217.427 500.081C218.113 497.546 219.94 496.854 221.767 495.933C225.65 494.089 227.249 491.093 227.705 487.176C229.304 476.806 229.761 466.205 229.989 455.835C229.989 454.222 229.989 452.609 230.218 450.765C230.674 445.465 230.218 441.086 224.279 439.243C222.681 438.782 222.452 436.708 221.31 435.786C228.391 430.025 236.613 430.716 244.835 430.947C243.465 445.234 242.323 459.522 240.724 473.579C236.841 506.303 221.767 533.496 200.754 557.692C190.933 568.984 180.427 579.124 166.495 584.885C155.532 589.725 143.884 591.568 132.007 588.342C127.667 587.19 124.013 585.116 121.044 581.659C112.822 572.211 105.513 562.301 99.8029 551.24C95.2349 542.483 96.1485 533.265 98.2041 524.278C100.031 517.134 102.315 510.22 105.056 503.537C105.513 502.385 105.513 500.772 107.797 501.694C115.334 504.92 123.556 505.611 131.55 505.381C141.6 504.92 151.421 506.764 161.47 506.303C162.612 506.303 164.668 506.994 164.896 505.151C165.124 503.076 162.841 503.537 161.699 503.537C149.593 502.155 137.717 499.62 126.525 493.859C114.877 487.867 106.655 478.649 101.63 466.205C99.8029 461.827 99.8029 457.909 102.315 453.53C106.198 448.691 109.396 443.391 113.278 438.09Z" fill="white"/>
<path fill-rule="evenodd" clip-rule="evenodd" d="M202.581 463.67C208.976 460.675 215.371 457.448 221.538 453.761C222.68 453.07 223.822 452.378 225.42 451.457C225.192 463.901 224.964 475.884 222.908 487.637C222.451 489.941 220.853 491.094 219.025 491.324C209.889 492.015 201.667 496.163 193.445 499.851C192.074 500.311 190.704 501.003 189.562 501.694C195.957 497.085 202.809 489.941 202.809 489.941V463.67H202.581ZM183.852 505.151C182.939 505.612 182.025 505.842 181.111 505.842C174.26 505.842 200.297 506.994 200.297 506.994L179.969 557.462C184.994 552.853 189.791 548.014 194.587 543.405C199.84 538.105 203.951 532.344 206.235 525.2C208.062 519.208 209.889 513.447 211.488 507.225C212.173 504.229 214.686 499.851 212.859 498.237C210.803 496.394 206.92 499.159 203.951 500.311C197.099 502.155 190.704 504.229 183.852 505.151ZM169.006 571.059L152.105 589.494C157.13 588.803 162.154 587.19 166.951 585.116C180.655 579.124 191.389 568.985 201.21 557.923C222.223 533.496 237.297 506.533 241.18 473.81C243.007 459.522 243.921 445.465 245.291 431.177C237.069 430.947 228.846 430.256 221.766 436.017C222.68 436.939 222.908 438.782 224.735 439.473C230.674 441.317 231.13 445.926 230.674 450.996C230.445 452.609 230.445 454.222 230.445 456.066C230.217 466.666 229.76 477.036 228.161 487.406C227.476 491.324 225.877 494.32 222.223 496.163C220.396 496.855 218.569 497.776 217.883 500.311C215.599 510.451 212.859 520.591 210.346 530.961C208.062 540.409 204.18 548.936 198.241 556.54C195.729 559.767 192.988 562.993 188.877 564.606C193.216 557.232 199.155 551.01 202.124 542.944C200.754 543.866 199.84 545.018 198.698 546.17C190.476 554.697 182.253 563.223 172.432 570.137C171.29 570.598 170.148 571.52 169.006 571.059Z" fill="#C4C4C4"/>
<path fill-rule="evenodd" clip-rule="evenodd" d="M277.282 503.835C272.029 513.744 268.146 523.653 262.436 532.41C269.973 501.991 264.949 471.572 261.979 440.923C278.424 440.001 295.325 438.849 312.684 435.623C308.344 442.075 304.69 448.297 301.949 454.98C300.35 458.667 298.98 462.354 297.153 466.042C296.011 468.346 295.097 470.651 292.356 471.342C290.986 471.803 290.529 472.955 290.758 474.338C290.986 475.951 292.356 476.181 293.498 476.412C296.011 476.642 298.751 477.334 301.264 477.334C304.005 477.334 304.461 478.255 304.005 480.79C302.177 494.387 300.35 507.983 298.523 521.579C294.64 551.537 290.529 581.265 286.646 611.223C284.591 627.355 281.622 643.255 280.936 659.387C280.023 676.67 279.338 693.723 278.424 711.007C264.72 706.628 251.016 705.246 240.282 696.719C244.621 678.283 252.387 650.169 255.356 630.811C258.554 638.646 259.695 646.021 260.609 653.625C261.523 661.23 259.696 668.604 257.868 675.979C261.979 669.526 264.263 662.382 264.492 654.778C264.72 644.177 261.979 634.038 258.782 623.898C254.214 609.149 253.072 594.17 256.27 578.961C259.01 566.517 261.294 553.842 263.807 541.167C264.035 539.554 264.72 538.402 265.634 537.019C270.659 528.032 274.998 518.814 277.054 508.674C277.739 507.061 278.424 505.909 277.282 503.835Z" fill="white"/>
<path fill-rule="evenodd" clip-rule="evenodd" d="M334.595 152.336C337.564 138.74 340.533 125.835 343.274 112.93C343.731 111.317 344.416 110.625 346.243 110.164C410.423 92.6505 475.059 114.773 512.973 173.307C513.887 174.69 514.343 175.611 513.658 177.455C509.319 186.673 505.436 196.121 501.096 205.8C497.67 200.73 494.473 195.891 490.818 191.282C487.392 186.673 482.596 183.216 477.571 180.451C484.195 188.056 491.047 195.66 495.386 204.878C489.448 198.426 483.51 191.743 477.115 185.751C449.935 160.632 417.96 148.88 381.873 148.188C366.114 147.958 350.583 149.11 334.595 152.336Z" fill="white"/>
<path fill-rule="evenodd" clip-rule="evenodd" d="M278.866 367.113C275.897 373.796 271.329 378.866 266.076 383.244C253.514 393.384 238.668 399.606 223.822 405.828C222.909 406.289 221.995 406.059 221.081 406.059C178.6 405.828 136.574 402.602 95.0061 393.614C84.7283 391.31 74.4504 388.545 65.0861 383.705C63.7157 383.014 62.3453 382.323 61.2033 381.401C54.5798 377.022 54.123 376.101 56.6354 368.726C58.691 362.735 61.2033 356.512 63.2589 350.521C63.9441 348.908 64.4009 347.986 66.4565 348.908C102.772 362.965 140.914 368.035 179.513 369.878C211.717 371.492 243.921 371.492 275.897 367.113C276.582 366.883 277.724 367.113 278.866 367.113Z" fill="#AFB0B0"/>
<path fill-rule="evenodd" clip-rule="evenodd" d="M301.706 368.957C315.409 374.026 328.428 377.483 339.391 386.701C340.762 387.853 341.904 389.006 342.817 390.158C347.385 395.688 346.928 400.528 341.447 405.367C337.107 409.285 331.854 411.589 326.373 413.663C309.243 419.885 291.428 422.42 273.384 424.264C253.514 426.338 233.415 426.799 213.316 426.338C159.414 424.955 105.969 419.655 53.8947 404.215C42.018 400.758 30.3698 396.38 19.4067 390.158C15.2955 387.853 11.4128 385.088 8.21523 381.862C2.2769 375.409 2.5053 369.878 9.58561 364.348C14.1536 360.891 19.1783 358.587 24.4314 356.743C35.3945 352.825 43.8452 350.521 55.7218 348.677C52.9811 356.282 50.6971 363.656 47.9563 370.57C46.3576 374.948 47.4995 377.944 50.2403 381.17C55.0367 386.01 60.975 388.775 67.1417 391.08C83.5863 397.532 103.457 401.68 120.815 404.215C157.13 409.746 193.902 412.281 230.674 411.82C250.088 411.589 269.502 410.668 288.687 406.059C293.712 404.906 298.508 403.293 302.619 400.297C306.045 397.762 307.644 394.536 306.502 389.927C304.446 383.244 303.304 376.561 301.706 368.957Z" fill="#AFB0B0"/>
<path fill-rule="evenodd" clip-rule="evenodd" d="M464.553 502.385C461.356 498.928 457.016 497.776 452.677 496.854C450.849 496.624 449.707 495.933 449.479 493.859C448.337 485.332 447.88 476.806 449.479 468.279C451.078 458.831 457.244 453.3 466.152 450.535C467.066 454.222 465.924 457.448 465.238 460.674C464.096 466.666 464.782 472.427 467.066 478.188C471.862 490.632 477.115 503.077 484.195 514.368C492.189 527.273 496.757 541.1 499.498 555.849C499.955 558.845 500.183 561.84 501.325 564.836C502.924 569.215 501.325 572.211 498.356 575.206C494.93 578.894 491.504 583.042 486.936 586.037C487.393 583.963 489.448 582.581 488.535 580.507C461.356 595.486 457.701 595.486 438.744 591.338C438.516 592.951 440.343 592.951 440.8 594.333C436.004 592.951 428.466 593.181 425.497 589.494C423.67 587.19 424.355 580.968 425.497 577.972C426.868 574.285 438.744 572.902 443.084 572.441C447.652 571.98 448.794 570.597 447.88 566.219C439.201 568.754 430.294 571.75 421.615 571.058C418.874 570.828 415.448 556.771 419.331 556.31C425.269 555.388 434.405 552.392 440.115 550.318C444.911 548.475 446.967 542.944 435.547 546.401C429.837 548.244 419.102 552.392 412.935 551.931C410.651 551.701 409.509 543.866 409.966 540.409C410.195 537.874 411.793 537.183 413.621 536.722C420.244 534.648 426.868 532.343 433.491 530.269C438.059 528.887 445.139 518.516 432.349 524.278C426.182 527.043 420.016 529.578 411.337 530.961C406.769 530.269 405.398 522.664 405.17 518.286C404.941 515.06 406.312 513.216 409.509 512.294C419.331 509.299 428.923 505.842 438.744 502.846C446.51 500.542 454.504 500.311 462.269 502.155C462.726 502.846 463.411 503.537 464.553 502.385Z" fill="#D98B58"/>
<path fill-rule="evenodd" clip-rule="evenodd" d="M499.269 531.652C509.09 553.084 516.399 574.976 515.714 598.943C517.084 596.408 517.313 581.659 516.399 577.281C513.658 562.762 512.288 547.783 505.436 534.187C504.979 533.265 504.751 532.113 504.522 530.961C504.066 529.348 504.522 528.656 506.35 529.117C515.485 530.5 524.85 531.191 533.757 534.648C535.813 535.339 537.183 536.722 538.097 538.566C545.634 553.775 548.831 569.906 549.517 586.959C550.202 611.617 550.202 636.506 546.776 660.933C545.862 666.694 544.035 672.225 541.98 677.525C541.294 679.138 540.609 680.06 539.01 680.521C528.504 683.056 517.998 685.36 506.806 688.126C517.313 635.123 512.288 583.272 499.269 531.652Z" fill="white"/>
<path fill-rule="evenodd" clip-rule="evenodd" d="M475.516 317.567C472.775 323.559 469.121 328.628 465.695 333.929C462.269 339.229 457.929 344.068 453.59 348.677C463.639 341.533 470.719 331.855 477.571 320.563C478.713 327.015 479.627 332.315 480.769 337.385C481.226 339.459 480.312 340.381 478.942 341.533C469.577 348.216 459.528 353.978 450.62 361.352C446.966 364.348 443.312 367.113 439.886 370.339C454.503 363.195 468.207 354.669 481.911 345.681C483.966 351.903 483.966 351.903 478.485 354.669C452.904 368.726 427.096 382.553 401.743 396.61C396.033 399.836 390.324 402.371 383.7 399.145C394.206 392.232 406.311 388.314 417.046 381.631C408.595 383.705 400.373 386.701 392.379 390.619C388.496 392.462 384.842 394.306 380.959 396.38C379.361 397.302 377.99 397.071 377.077 395.458C376.163 393.614 378.219 393.614 378.904 393.153C394.663 383.014 411.336 374.026 426.639 363.195C437.602 355.36 448.336 347.064 456.787 336.464C461.127 331.163 464.781 325.172 466.38 318.258C467.065 315.262 468.435 315.032 470.719 316.184C472.318 316.645 473.689 316.876 475.516 317.567Z" fill="#C10016"/>
<path fill-rule="evenodd" clip-rule="evenodd" d="M440.343 471.275C422.3 447.769 406.997 423.342 379.59 411.128C385.756 409.976 391.466 412.05 404.942 420.116C401.973 415.276 392.38 409.746 384.158 408.363C383.244 408.132 382.559 408.132 381.645 407.902C380.275 407.672 379.818 407.211 380.046 405.598C380.275 403.984 381.188 403.984 382.33 403.984C398.775 406.289 414.078 411.128 423.67 426.338C432.121 439.934 436.461 454.913 440.343 471.275Z" fill="#C10016"/>
<path fill-rule="evenodd" clip-rule="evenodd" d="M327.514 342.686C332.768 349.829 335.965 358.126 341.447 365.039C338.934 359.278 336.422 353.747 333.909 347.986C333.224 346.603 332.311 345.451 331.854 344.068C329.113 338.307 329.113 338.307 334.138 334.62C336.422 333.007 338.706 331.163 341.447 329.089C347.842 351.673 358.12 372.183 369.539 392.232C367.027 393.614 365.885 392.693 364.286 390.849C360.175 385.549 356.292 380.018 350.811 375.64C354.008 382.092 358.805 387.623 362.916 393.845C356.064 393.153 327.058 350.982 327.514 342.686Z" fill="#C10016"/>
<path fill-rule="evenodd" clip-rule="evenodd" d="M428.923 464.131C420.244 459.061 411.108 455.835 401.972 451.917C389.41 446.387 380.731 436.708 376.163 423.573C375.935 422.881 375.478 421.959 375.478 421.268C375.25 419.655 375.706 417.811 376.848 416.659C377.99 415.507 379.361 416.89 380.503 417.35C393.75 423.342 404.028 433.482 413.392 444.313C418.645 450.535 423.67 457.448 428.923 464.131Z" fill="#C10016"/>
<path fill-rule="evenodd" clip-rule="evenodd" d="M290.971 459.753C312.441 443.852 332.311 425.646 358.805 418.042C354.922 423.803 350.354 428.412 345.787 433.251C343.046 436.247 339.848 439.012 337.107 442.008C326.83 453.991 312.669 456.987 298.28 459.292C296.224 459.522 293.94 460.444 290.971 459.753Z" fill="#C10016"/>
<path fill-rule="evenodd" clip-rule="evenodd" d="M150.507 447.078C155.531 449.613 160.099 448.922 165.124 446.617C170.377 444.313 175.859 445.926 180.655 447.769C186.822 450.074 192.988 450.304 198.927 447.769C200.982 446.848 201.896 447.309 202.124 449.613C202.81 456.757 201.896 458.6 195.272 461.366C179.056 468.279 177.914 468.049 163.525 457.909C158.957 454.683 154.618 451.226 150.05 447.769C150.278 447.769 150.278 447.309 150.507 447.078Z" fill="#EDCBAA"/>
<path fill-rule="evenodd" clip-rule="evenodd" d="M289.6 453.991C293.255 443.391 297.823 433.712 305.131 425.186C306.045 424.033 307.187 424.033 308.329 423.803C317.008 421.959 325.459 419.655 333.453 415.968C333.681 415.737 334.138 415.968 335.051 415.968C333.453 417.35 332.082 418.503 330.712 419.655C338.706 416.198 346.7 413.433 355.379 413.202C330.027 421.268 310.613 438.782 289.6 453.991Z" fill="#C10016"/>
<path fill-rule="evenodd" clip-rule="evenodd" d="M507.263 503.077C513.658 512.756 523.022 518.978 530.331 528.195C520.51 525.661 511.146 524.739 501.781 523.817C499.726 523.587 498.812 523.126 499.726 520.821C501.781 514.83 504.065 509.299 507.263 503.077Z" fill="#DC9118"/>
<path fill-rule="evenodd" clip-rule="evenodd" d="M487.164 631.205C487.621 651.485 489.22 670.151 493.559 688.356C493.788 689.508 494.701 691.121 493.103 691.582C491.275 692.043 491.275 689.969 490.819 688.817C487.849 678.908 486.479 668.538 485.566 658.168C483.738 639.962 483.282 621.526 483.053 603.091C483.053 601.708 482.368 599.865 484.88 599.865C487.393 599.865 486.251 601.708 486.251 602.86C486.936 612.77 487.393 622.679 487.164 631.205Z" fill="white"/>
<path fill-rule="evenodd" clip-rule="evenodd" d="M189.334 258.112C195.044 258.112 195.272 264.103 194.13 269.634C193.674 271.247 192.988 271.938 191.39 271.708C186.593 271.017 186.593 271.247 181.797 270.786C180.427 270.556 179.97 270.095 179.97 268.712C179.285 263.412 184.081 258.112 189.334 258.112Z" fill="#AFB0B0"/>
<path fill-rule="evenodd" clip-rule="evenodd" d="M319.978 369.417C314.496 367.343 308.329 365.269 302.391 362.965C301.021 362.504 297.595 354.669 298.508 353.286C299.422 351.673 301.021 352.364 302.391 353.056C305.589 354.899 308.329 356.973 310.842 359.508C314.039 362.965 317.008 366.422 319.978 369.417Z" fill="white"/>
<path fill-rule="evenodd" clip-rule="evenodd" d="M204.408 457.448C206.921 452.839 208.748 449.152 210.804 445.465C211.032 445.004 211.717 443.852 211.946 444.082C216.285 445.004 220.625 444.543 224.964 444.773C219.026 450.304 212.174 453.53 204.408 457.448Z" fill="white"/>
<path fill-rule="evenodd" clip-rule="evenodd" d="M366.799 409.285C367.256 406.059 368.169 403.063 369.996 400.528C370.682 399.606 371.367 398.223 372.966 398.684C374.336 399.145 375.25 400.297 375.478 401.68C375.935 406.059 373.879 409.976 372.28 413.894C372.052 414.816 371.138 414.816 370.682 414.355C368.854 412.742 366.342 412.281 366.799 409.285Z" fill="#C10016"/>
<path fill-rule="evenodd" clip-rule="evenodd" d="M339.848 413.202C343.73 410.207 347.385 407.211 349.669 402.832C350.811 400.758 353.78 401.219 356.064 400.989C357.206 400.989 356.749 401.911 356.749 402.602C356.749 404.215 356.521 405.828 356.521 407.441C356.521 408.594 356.521 409.285 355.15 409.285C349.897 409.515 344.872 411.589 339.848 413.202Z" fill="#C10016"/>
<path fill-rule="evenodd" clip-rule="evenodd" d="M366.114 410.437C363.144 407.211 362.002 404.215 362.916 400.528C363.601 397.763 366.342 397.993 369.083 397.532C367.027 401.68 365.885 405.598 366.114 410.437Z" fill="#C10016"/>
<path fill-rule="evenodd" clip-rule="evenodd" d="M307.416 576.82C307.187 582.12 302.848 586.268 297.595 586.038C292.57 585.807 288.459 581.429 288.687 576.359C288.687 571.289 293.255 566.68 298.28 566.911C303.533 567.141 307.644 571.75 307.416 576.82Z" fill="#000005"/>
<path fill-rule="evenodd" clip-rule="evenodd" d="M323.175 485.563C323.175 490.863 319.064 495.011 313.811 495.011C308.786 495.011 304.675 490.863 304.675 485.793C304.675 480.493 308.786 476.114 314.039 476.114C319.292 475.884 323.175 480.032 323.175 485.563Z" fill="#000005"/>
<path fill-rule="evenodd" clip-rule="evenodd" d="M291.199 691.121C285.946 691.121 281.835 686.743 282.064 681.442C282.292 676.373 286.175 672.455 291.428 672.455C296.681 672.455 300.792 676.603 300.792 681.903C300.792 687.204 296.681 691.121 291.199 691.121Z" fill="#000005"/>
<path fill-rule="evenodd" clip-rule="evenodd" d="M497.899 363.426C498.584 362.274 499.269 362.965 499.954 363.195C512.06 365.961 523.936 369.648 535.584 374.487C536.498 374.948 537.64 375.409 538.554 375.87C539.696 376.561 541.066 377.022 540.609 378.635C540.152 380.248 538.782 379.788 537.412 379.788C533.757 379.327 530.103 378.174 526.905 376.561C517.769 372.644 508.405 368.726 499.269 364.808C498.813 364.578 497.899 364.578 497.899 363.426Z" fill="#000005"/>
<path fill-rule="evenodd" clip-rule="evenodd" d="M376.163 294.522C370.225 294.522 365.429 293.831 360.632 292.218C356.978 291.065 356.293 289.452 359.033 286.917C362.459 283.461 363.601 279.543 361.317 274.934C359.719 271.477 358.577 267.79 357.206 264.103C356.749 262.721 355.379 261.107 356.978 259.494C358.348 258.112 359.719 258.803 361.317 259.264C368.398 260.877 375.478 262.49 382.558 263.181C392.608 264.103 402.429 262.951 412.022 259.494C413.62 259.033 415.219 257.881 416.59 259.494C417.96 260.877 417.046 262.49 416.361 264.103C410.423 278.391 401.287 289.452 385.756 293.37C382.33 294.061 378.904 294.522 376.163 294.522Z" fill="#000005"/>
<path fill-rule="evenodd" clip-rule="evenodd" d="M394.435 182.525C405.855 182.755 417.275 180.912 428.923 181.603C439.429 182.294 446.053 189.208 446.053 200.5C438.972 189.899 428.923 190.821 418.873 191.973C414.077 192.434 409.281 192.895 404.484 192.434C396.947 191.973 395.12 190.36 394.435 182.525Z" fill="#000005"/>
<path fill-rule="evenodd" clip-rule="evenodd" d="M481.912 247.05C486.251 245.898 489.905 246.128 492.189 249.815C493.788 252.35 493.103 254.885 490.819 257.19C490.362 254.655 491.047 251.89 488.535 250.737C487.165 250.046 485.566 250.276 484.195 250.737C482.14 251.659 481.226 252.35 483.053 254.655C486.936 259.264 484.881 264.795 479.171 265.947C477.572 266.177 475.973 266.408 475.516 264.334C475.06 262.721 475.973 261.568 477.344 261.107C478.486 260.647 479.856 260.647 479.856 259.033C479.856 257.42 478.486 256.498 477.115 256.038C474.146 255.116 473.918 253.272 474.831 250.507C476.658 245.437 478.714 240.367 482.597 236.68C486.708 232.532 492.189 231.149 496.529 233.223C501.554 235.758 503.152 240.367 502.924 245.667C502.696 251.198 500.412 255.807 497.671 260.186C496.529 261.799 495.159 262.721 493.56 261.568C491.961 260.416 492.418 259.033 493.331 257.651C494.93 255.116 496.529 252.581 497.443 249.585C498.128 247.511 498.356 245.207 497.899 243.133C496.986 238.063 492.875 235.989 488.535 238.754C485.337 240.828 483.51 243.363 481.912 247.05Z" fill="#000005"/>
<path fill-rule="evenodd" clip-rule="evenodd" d="M410.194 215.94C411.336 215.94 412.25 216.17 413.849 216.401C412.25 213.174 411.336 210.179 411.336 206.491C408.595 206.952 408.139 209.487 406.768 210.87C405.169 212.713 404.027 216.17 401.287 215.018C398.774 214.096 398.546 210.639 398.774 206.952C399.688 208.796 400.373 209.718 400.83 210.87C401.744 210.87 402.2 210.179 402.429 209.487C405.169 202.574 410.423 200.73 417.275 201.652C423.441 202.574 429.836 202.343 435.775 205.109C437.145 205.8 437.373 206.03 436.688 207.413C436.231 208.335 437.145 208.565 437.602 209.026C439.429 211.1 441.713 213.174 442.17 216.401C440.114 214.787 438.287 213.174 436.231 211.331C433.491 209.026 430.75 207.183 427.324 206.491C426.41 206.261 425.04 205.8 424.355 207.183C423.898 208.565 425.04 209.487 425.954 209.718C430.522 210.639 430.978 211.792 430.75 214.787C430.75 215.479 429.836 216.631 430.065 217.092C430.75 218.014 434.404 217.092 433.719 217.553C431.664 218.705 423.67 219.627 421.842 219.627C418.188 219.396 413.849 219.166 410.194 215.94Z" fill="#000005"/>
<path fill-rule="evenodd" clip-rule="evenodd" d="M334.366 209.948C335.28 206.261 338.249 204.648 340.533 201.652C339.163 201.882 338.021 202.113 337.107 202.113C336.65 201.882 336.65 201.652 336.879 201.421C339.391 199.578 342.36 199.117 345.329 198.887C349.212 198.656 353.323 198.656 357.206 198.656C365.2 198.887 367.712 200.961 370.453 208.335C371.138 210.409 368.397 214.557 366.342 214.557C365.885 214.557 365.2 214.557 364.971 213.866C364.743 213.174 364.971 212.483 365.428 212.022C369.083 208.104 364.058 206.491 363.144 203.956C362.459 201.652 359.49 201.652 356.978 201.882C356.521 201.882 355.836 202.343 355.836 202.804C355.607 203.496 356.064 204.187 356.749 204.417C358.576 205.8 360.86 205.57 362.916 205.8C363.829 208.335 360.175 209.718 361.774 212.483C362.002 212.944 360.632 213.405 359.718 213.405C355.836 214.327 351.953 214.557 347.842 213.866C346.243 213.635 344.416 213.405 346.928 211.331C348.298 210.178 346.243 208.796 346.014 207.644C344.644 202.804 343.959 202.574 339.848 205.57C338.249 207.183 336.193 208.565 334.366 209.948Z" fill="#000005"/>
<path fill-rule="evenodd" clip-rule="evenodd" d="M376.62 196.121C376.849 197.274 376.62 198.656 377.077 199.808C378.447 205.57 377.991 211.331 375.25 216.631C372.281 222.162 369.997 228.153 366.571 233.454C363.83 238.063 364.515 241.98 366.799 246.128C367.713 247.511 368.398 248.894 368.855 250.507C364.744 247.511 361.774 243.824 360.176 238.754C357.435 242.211 359.49 244.976 361.546 247.741C357.892 247.05 355.836 243.593 356.978 239.906C357.435 238.293 358.348 236.91 359.49 235.758C367.484 227.001 370.225 215.709 373.879 205.109C375.478 200.5 373.423 195.66 372.737 190.821C372.509 189.669 372.281 188.747 372.509 187.595C374.793 190.13 374.793 193.586 376.62 196.121Z" fill="#000005"/>
<path fill-rule="evenodd" clip-rule="evenodd" d="M331.854 195.43C333.224 184.138 336.422 180.912 346.243 181.603C352.41 182.064 358.348 183.216 364.515 183.907C366.57 184.138 366.342 185.06 366.114 186.442C365.428 189.208 363.601 190.59 360.86 190.59C357.206 190.821 353.78 190.13 350.354 189.438C343.502 188.056 337.107 188.056 331.854 195.43Z" fill="#000005"/>
<path fill-rule="evenodd" clip-rule="evenodd" d="M383.7 300.514C380.274 306.505 375.935 308.579 369.996 307.888C365.428 307.427 362.231 304.892 360.175 299.592C367.941 303.74 375.478 303.279 383.7 300.514Z" fill="#000005"/>
<path fill-rule="evenodd" clip-rule="evenodd" d="M391.466 250.968C398.317 247.28 394.206 241.75 393.75 236.68C397.176 239.906 399.003 244.515 398.089 247.28C397.176 250.046 394.663 250.737 391.466 250.968Z" fill="#000006"/>
<path fill-rule="evenodd" clip-rule="evenodd" d="M355.379 325.863C348.527 323.558 344.187 318.028 343.502 311.345C345.786 317.567 351.496 320.793 355.379 325.863Z" fill="#000508"/>
<path fill-rule="evenodd" clip-rule="evenodd" d="M338.021 274.473C338.25 273.321 337.336 271.708 338.935 271.477C340.305 271.247 340.305 272.86 340.762 273.782C341.447 275.625 342.361 277.469 342.361 279.773C342.361 280.695 342.132 281.387 341.219 281.617C340.077 281.848 339.163 281.387 338.935 280.234C338.478 278.16 338.25 276.086 338.021 274.473Z" fill="#020307"/>
<path fill-rule="evenodd" clip-rule="evenodd" d="M432.577 276.547C431.892 278.852 431.206 280.926 430.293 283.23C430.064 284.152 429.151 285.074 428.009 284.382C426.867 283.921 426.867 282.769 427.324 281.847C428.237 279.773 429.151 277.93 430.293 275.856C430.75 275.164 430.75 273.782 432.12 274.243C432.805 274.704 432.577 275.625 432.577 276.547Z" fill="#121212"/>
<path fill-rule="evenodd" clip-rule="evenodd" d="M376.848 196.352C377.077 194.508 375.478 192.665 376.163 190.36C378.676 193.126 380.731 195.891 379.589 199.808C377.305 199.348 377.762 197.274 376.848 196.352C376.848 196.352 376.62 196.121 376.848 196.352Z" fill="#171717"/>
<path fill-rule="evenodd" clip-rule="evenodd" d="M390.095 247.972C388.04 248.663 385.756 249.355 383.7 250.046C384.614 245.437 386.441 244.746 390.095 247.972Z" fill="#000006"/>
<path fill-rule="evenodd" clip-rule="evenodd" d="M548.374 88.2721C554.084 94.7246 554.312 102.56 553.627 110.395C552.942 116.387 552.257 122.148 549.973 127.679C549.516 128.831 549.059 130.905 547.46 130.444C545.633 129.983 546.09 127.909 546.547 126.526C548.146 119.382 550.201 112.469 550.658 105.095C550.886 99.3336 550.658 93.8028 548.374 88.2721Z" fill="#000004"/>
<path fill-rule="evenodd" clip-rule="evenodd" d="M389.638 23.747C378.447 26.9732 370.681 34.578 363.373 42.6436C361.774 44.2568 359.49 47.9439 357.891 46.3308C355.835 44.4872 359.261 41.9523 360.632 40.1087C366.799 32.0431 374.564 26.0514 384.842 24.2079C385.756 23.9774 386.669 23.9774 387.583 23.9774C388.268 23.747 388.953 23.747 389.638 23.747Z" fill="#000005"/>
<path fill-rule="evenodd" clip-rule="evenodd" d="M388.04 84.3544C387.811 90.5765 383.243 96.1072 377.305 97.9508C380.274 92.4201 385.527 89.4243 388.04 84.3544Z" fill="#000003"/>
<path fill-rule="evenodd" clip-rule="evenodd" d="M217.655 462.749C219.71 462.749 220.624 462.518 221.081 463.67C221.538 464.592 221.081 465.283 220.396 465.975C215.142 469.892 208.976 472.197 202.581 474.04C201.895 474.271 201.21 473.81 200.753 473.119C200.297 472.427 200.525 471.736 200.982 471.275C207.149 468.279 212.858 465.283 217.655 462.749Z" fill="#000005"/>
<path fill-rule="evenodd" clip-rule="evenodd" d="M245.748 593.873C245.748 590.877 245.748 588.112 245.748 585.116C245.748 584.424 245.748 583.733 246.662 583.503C247.575 583.503 247.804 584.194 247.804 584.885C248.26 594.103 250.544 602.86 252.143 611.848C252.372 612.769 252.6 613.922 251.458 614.382C250.088 614.843 249.631 613.461 249.174 612.539C245.748 607.008 245.748 600.325 245.748 593.873Z" fill="#000004"/>
<path fill-rule="evenodd" clip-rule="evenodd" d="M348.298 113.852C351.724 123.07 346.471 139.431 339.162 142.197C344.644 133.209 346.014 123.761 348.298 113.852Z" fill="#000004"/>
<path fill-rule="evenodd" clip-rule="evenodd" d="M408.824 143.119C412.479 134.362 416.818 125.835 417.275 115.235C420.929 122.378 415.676 138.74 408.824 143.119Z" fill="#000003"/>
<path fill-rule="evenodd" clip-rule="evenodd" d="M510.004 176.764C507.948 179.76 496.072 193.356 494.701 194.047C494.473 188.747 503.152 179.068 510.004 176.764Z" fill="#000003"/>
<path fill-rule="evenodd" clip-rule="evenodd" d="M466.152 159.25C464.325 154.18 467.75 145.423 472.775 141.966C470.263 147.497 469.349 153.719 466.152 159.25Z" fill="#000004"/>
<path fill-rule="evenodd" clip-rule="evenodd" d="M292.113 417.12C289.829 416.889 287.317 416.429 284.804 415.968C284.119 415.737 282.977 415.968 282.977 414.815C282.977 413.894 283.891 413.433 284.804 413.433C288.687 412.972 292.57 412.28 296.681 411.82C310.613 410.437 323.175 405.598 334.595 397.301C335.28 396.841 336.194 395.227 337.336 396.38C338.249 397.532 336.65 398.223 335.965 398.915C323.86 411.82 308.558 415.737 292.113 417.12Z" fill="#000005"/>
<path fill-rule="evenodd" clip-rule="evenodd" d="M14.1534 376.792C19.8634 380.94 25.5733 384.627 31.74 387.392C35.8512 389.236 39.9623 390.849 44.3019 392.693C46.8142 393.845 49.3266 394.767 51.6106 396.38C52.2958 396.841 53.4378 397.302 53.2094 398.454C52.7526 399.837 51.6106 399.145 50.697 398.915C49.555 398.915 48.1846 398.684 47.0426 398.223C35.3944 393.614 24.2029 387.853 14.8386 379.096C14.1534 378.866 13.4683 378.405 14.1534 376.792Z" fill="#000005"/>
<path fill-rule="evenodd" clip-rule="evenodd" d="M481.226 526.582C481.911 526.813 482.368 526.813 482.596 527.043C487.621 535.109 490.818 543.866 491.275 553.314C491.275 554.697 491.96 557.001 490.133 557.001C488.534 557.232 488.306 554.927 488.078 553.545C487.164 548.936 486.479 544.327 485.337 539.718C484.195 535.57 482.824 531.422 481.226 526.582Z" fill="#000004"/>
<path fill-rule="evenodd" clip-rule="evenodd" d="M513.43 680.521C521.424 677.525 529.418 674.529 537.412 671.764C538.325 671.533 539.01 671.303 539.696 671.994C540.381 673.146 539.467 673.838 538.782 674.298C536.041 676.603 532.844 677.525 529.418 678.447C524.165 679.599 519.14 680.521 513.887 681.673C513.658 681.212 513.43 680.751 513.43 680.521Z" fill="#000004"/>
<path fill-rule="evenodd" clip-rule="evenodd" d="M540.609 666.003C535.585 669.92 530.331 670.381 524.85 672.225C528.733 669.459 536.27 666.233 540.609 666.003Z" fill="#242626"/>
<path fill-rule="evenodd" clip-rule="evenodd" d="M302.619 576.359C302.162 578.894 301.02 580.737 298.279 580.968C295.539 580.968 293.94 579.355 293.711 576.589C293.711 574.054 295.31 572.211 298.051 571.98C300.792 571.98 302.162 573.824 302.619 576.359Z" fill="#C4C4C4"/>
<path fill-rule="evenodd" clip-rule="evenodd" d="M313.811 489.941C311.07 489.48 309.472 487.867 309.7 485.332C309.7 482.567 311.527 480.954 314.04 480.954C316.552 481.184 318.379 482.797 318.151 485.563C318.151 488.328 316.552 489.711 313.811 489.941Z" fill="#C4C4C4"/>
<path fill-rule="evenodd" clip-rule="evenodd" d="M291.427 686.282C288.686 685.821 287.088 684.208 287.316 681.443C287.544 678.908 289.143 677.295 291.656 677.295C294.396 677.295 295.995 678.908 295.995 681.904C295.767 684.669 293.94 686.052 291.427 686.282Z" fill="#C4C4C4"/>
<path fill-rule="evenodd" clip-rule="evenodd" d="M381.873 288.991C380.959 288.991 379.132 289.452 377.077 289.452C375.706 289.452 373.879 290.374 373.194 289.222C372.28 287.839 373.651 285.996 374.336 284.613C377.762 277.93 392.151 275.395 397.861 280.234C399.46 281.617 398.318 281.848 397.404 282.539C394.206 285.074 388.04 287.839 381.873 288.991Z" fill="#C10016"/>
<path fill-rule="evenodd" clip-rule="evenodd" d="M363.373 264.795C376.163 267.79 388.725 269.634 401.515 267.56C390.78 275.395 366.57 274.012 363.373 264.795Z" fill="white"/>
<path fill-rule="evenodd" clip-rule="evenodd" d="M71.2531 376.561C73.7654 369.878 75.821 363.426 78.105 356.973C82.9013 358.586 86.0989 359.508 88.1545 360.2C86.3273 366.652 84.2717 373.566 81.9877 380.94C80.8457 383.936 77.4198 385.318 74.4506 384.166C71.4815 383.014 70.1111 379.557 71.2531 376.561ZM83.8149 342.225C92.494 321.715 104.142 303.971 128.809 293.6C138.63 289.452 138.859 290.144 149.593 288.761L139.772 293.37C111.223 307.427 100.716 323.328 93.1792 344.76L83.8149 342.225Z" fill="#20201E"/>
<path fill-rule="evenodd" clip-rule="evenodd" d="M346.243 213.174C345.786 213.174 345.557 212.944 345.101 212.944C340.989 211.792 341.675 211.331 339.162 206.261C337.563 207.413 335.965 208.565 334.138 209.948C335.051 206.261 338.02 204.648 340.304 201.652C338.934 201.882 337.792 202.113 336.878 202.113C336.422 201.882 336.421 201.652 336.65 201.422C339.162 199.578 342.131 199.117 345.101 198.887C348.983 198.656 353.095 198.656 356.977 198.656C364.971 198.887 367.484 200.961 370.224 208.335C370.91 210.409 368.169 214.557 366.113 214.557C365.656 214.557 364.971 214.557 364.743 213.866C364.514 213.405 364.743 212.944 364.743 212.483C364.058 212.483 362.687 212.713 360.86 212.713C360.403 212.944 359.946 212.944 359.49 213.174C355.607 214.096 351.724 214.327 347.613 213.635C347.385 213.866 346.471 213.635 346.243 213.174ZM360.632 190.591C356.977 190.821 353.551 190.13 350.125 189.438C343.273 188.056 337.107 187.825 331.854 195.43C332.082 192.895 332.539 190.821 332.996 189.208C334.823 182.986 338.477 181.142 346.243 181.603C352.409 182.064 358.348 183.216 364.514 183.908C365.428 183.908 365.885 184.138 366.113 184.599C366.342 185.06 366.342 185.751 366.113 186.442C365.428 189.208 363.372 190.36 360.632 190.591ZM373.193 184.138C370.681 173.998 369.311 161.554 371.595 153.028C360.175 153.258 348.527 154.641 336.878 156.945C334.594 157.406 333.224 158.558 332.996 161.093C332.31 165.472 331.168 169.85 330.712 174.229C330.026 179.529 329.57 184.829 329.113 190.13C327.971 200.269 326.829 210.179 324.773 220.088C323.174 228.153 321.347 236.449 322.718 244.746C326.144 266.868 331.625 288.53 339.391 309.501C341.218 314.341 342.817 319.18 346.471 322.867C349.669 326.324 354.008 328.859 358.804 330.933C358.348 327.246 358.348 322.176 359.718 315.493C360.632 310.192 362.916 307.427 364.971 305.814C363.601 304.662 362.23 303.279 361.317 301.205C356.977 298.901 354.693 295.674 354.693 293.37C354.693 291.987 356.064 290.605 357.891 289.222C358.119 288.53 358.576 287.609 359.49 286.687C361.317 284.843 362.459 283 362.687 280.926C362.687 279.543 362.459 277.93 362.23 276.086C362.002 275.625 362.002 275.165 361.774 274.704C360.175 271.247 359.033 267.56 357.662 263.873C357.434 263.181 356.977 262.49 356.749 261.799C352.866 255.116 356.292 253.503 359.033 253.503C361.774 253.503 367.94 256.037 375.934 256.729C382.329 257.19 392.15 248.433 395.805 244.746C395.805 244.285 395.805 243.824 395.576 243.363C390.552 243.363 375.249 243.593 367.255 241.98C366.57 241.75 365.885 241.75 365.2 241.519C365.428 243.132 366.113 244.515 367.027 246.128C367.94 247.511 368.626 248.894 369.082 250.507C364.971 247.511 362.002 243.824 360.403 238.754C357.662 242.211 359.718 244.976 361.774 247.741C358.119 247.05 356.064 243.593 357.206 239.906C357.662 238.293 358.576 236.91 359.718 235.758C367.712 227.001 370.453 215.709 374.107 205.109C375.706 200.5 373.65 195.66 372.965 190.821C372.737 189.669 372.508 188.747 372.737 187.595C374.564 190.13 374.792 193.356 376.163 195.891C375.934 194.508 375.706 192.895 375.249 191.743C374.564 189.208 373.65 186.673 373.193 184.138ZM340.761 273.551C341.446 275.395 342.36 277.239 342.36 279.543C342.36 280.465 342.131 281.156 341.218 281.387C340.076 281.617 339.162 281.156 338.934 280.004C338.477 277.93 338.249 275.856 338.02 274.243C338.249 273.091 337.335 271.477 338.934 271.247C340.304 271.017 340.304 272.63 340.761 273.551ZM383.471 250.046C384.613 245.437 386.44 244.976 389.866 247.972C387.811 248.663 385.755 249.355 383.471 250.046ZM343.502 311.345C345.786 317.567 351.496 320.793 355.378 325.863C348.527 323.558 343.959 318.028 343.502 311.345Z" fill="#D98B58"/>
<path fill-rule="evenodd" clip-rule="evenodd" d="M432.349 524.508C444.683 518.977 437.602 529.117 433.035 530.73C431.893 531.191 430.751 531.422 429.837 531.882C429.38 533.726 429.152 536.031 429.837 538.796C430.751 543.405 432.349 545.94 433.491 547.553C434.177 547.322 434.633 547.092 435.318 546.862C446.738 543.174 444.683 548.936 439.886 550.779C438.516 551.24 436.917 551.931 435.09 552.392C434.176 555.618 433.263 561.149 436.004 564.606C437.831 566.68 439.201 568.063 440.343 568.984C442.856 568.293 445.368 567.371 447.88 566.68C448.794 571.058 447.652 572.211 443.084 572.902C443.769 575.898 446.053 581.198 453.819 582.581C465.01 584.424 490.819 569.445 490.819 569.445L499.041 554.236C496.301 540.179 491.733 527.043 484.195 514.829C477.115 503.537 471.862 491.093 467.066 478.649C464.782 472.888 464.325 467.127 465.239 461.135C465.695 457.909 467.066 454.683 466.152 450.996C457.016 453.761 451.078 459.292 449.479 468.74C447.88 477.267 448.337 485.793 449.479 494.32C449.708 496.394 450.849 496.855 452.677 497.315C457.016 498.007 461.356 499.389 464.553 502.846C463.411 503.998 462.726 503.307 462.041 503.077C454.047 501.003 446.282 501.463 438.516 503.768C435.09 504.92 431.436 505.842 428.01 506.994C425.954 514.829 429.837 522.895 432.349 524.508C432.349 524.508 432.121 524.278 432.349 524.508ZM485.337 539.948C484.195 535.57 482.825 531.422 481.226 526.582C481.912 526.813 482.368 526.813 482.597 527.043C487.621 535.109 490.819 543.866 491.276 553.314C491.276 554.697 491.961 557.001 490.134 557.001C488.535 557.232 488.307 554.927 488.078 553.544C486.936 549.166 486.479 544.557 485.337 539.948Z" fill="#EDCBAA"/>
<path fill-rule="evenodd" clip-rule="evenodd" d="M460.213 476.575C458.157 468.51 459.756 460.213 463.182 451.687C455.645 454.683 450.849 459.983 449.25 468.279C447.651 476.806 448.108 485.332 449.25 493.859C449.478 495.933 450.62 496.394 452.447 496.854C456.33 497.546 459.985 498.468 462.954 501.003C462.725 494.55 462.04 483.258 460.213 476.575Z" fill="#D98B58"/>
<path fill-rule="evenodd" clip-rule="evenodd" d="M478.713 684.899C473.917 682.595 455.873 710.248 456.102 709.326C459.985 689.969 474.374 679.599 475.287 659.78C475.972 645.723 470.034 625.444 473.232 601.938C473.003 600.095 473.46 597.79 470.262 598.021C465.238 598.251 460.213 599.864 455.188 599.634C454.275 599.634 454.046 600.325 453.818 601.016C451.762 605.395 447.879 606.086 443.768 605.395C439.657 604.704 435.318 604.012 431.206 602.86C426.867 601.708 423.441 600.325 421.157 598.942C422.527 608.621 428.922 612.078 440.114 615.304C457.472 620.374 457.472 623.37 457.472 623.37L455.645 677.525L424.811 731.68L423.898 735.137L423.669 736.519C430.521 735.828 491.275 727.532 492.417 722.923C492.189 721.31 483.966 687.434 478.713 684.899Z" fill="#C4C4C4"/>
<path fill-rule="evenodd" clip-rule="evenodd" d="M624.887 599.403C606.387 607.239 582.405 608.852 557.51 608.621C558.652 618.07 559.337 627.518 558.652 636.736C558.423 640.193 559.793 641.345 562.763 641.806C568.701 642.958 569.615 642.497 575.324 641.114C586.288 638.349 596.337 633.971 605.473 628.209C615.066 622.218 623.745 614.843 631.739 606.317C637.449 600.095 642.017 593.181 644.529 585.577C639.047 591.799 632.424 596.177 624.887 599.403Z" fill="#C4C4C4"/>
<path fill-rule="evenodd" clip-rule="evenodd" d="M505.893 448.691C503.38 457.909 503.837 467.127 504.066 476.575C504.751 474.501 504.979 472.427 505.436 470.353C508.405 457.448 513.201 445.465 519.825 434.173L505.893 448.691Z" fill="#C4C4C4"/>
<path fill-rule="evenodd" clip-rule="evenodd" d="M500.639 464.362C502.238 460.444 502.238 456.526 502.695 452.609C502.695 452.378 502.695 452.148 502.695 451.918L499.497 455.144C499.954 458.14 500.183 461.135 500.639 464.362Z" fill="#C4C4C4"/>
<path fill-rule="evenodd" clip-rule="evenodd" d="M496.3 487.406C495.843 477.727 496.072 467.818 497.214 458.139C494.93 462.057 487.393 475.423 479.17 488.558C481.683 493.398 483.967 497.776 486.708 503.307C487.85 505.381 488.763 507.455 490.59 509.068C496.072 501.463 496.757 496.624 496.3 487.406Z" fill="#C4C4C4"/>
<path fill-rule="evenodd" clip-rule="evenodd" d="M542.664 142.888C539.695 143.118 536.269 143.118 532.158 141.966C537.639 139.431 542.436 138.51 547.46 138.51C549.059 138.51 550.201 138.51 551.115 136.666C563.22 114.313 562.306 88.9635 542.664 71.6799C537.868 67.3015 532.843 64.0752 527.361 62.0012C540.608 101.408 536.04 127.218 523.707 132.287C519.367 134.131 515.028 135.283 511.374 135.975C512.059 138.74 512.972 141.505 513.886 144.04C517.997 156.024 522.337 167.776 531.016 177.225C536.726 183.677 543.578 186.673 552.257 182.294C554.769 197.734 550.429 209.487 536.04 216.631C537.639 216.631 539.01 216.631 540.38 216.17C564.819 209.257 576.695 173.537 561.164 153.258C557.053 146.806 551.115 142.427 542.664 142.888ZM550.201 127.679C549.744 128.831 549.287 130.905 547.689 130.444C545.862 129.983 546.318 127.909 546.775 126.526C548.374 119.382 550.429 112.469 550.886 105.095C551.115 99.3336 550.886 93.5724 548.602 88.0417C554.312 94.4942 554.541 102.329 553.855 110.165C553.17 116.387 552.257 122.148 550.201 127.679Z" fill="#C4C4C4"/>
<path fill-rule="evenodd" clip-rule="evenodd" d="M479.855 135.975C488.078 143.81 490.133 149.571 486.479 159.48C483.053 168.237 477.115 176.764 473.003 182.064C474.374 183.216 475.516 184.369 476.886 185.521C483.51 191.512 489.22 198.195 495.158 204.648C490.818 195.2 483.966 187.825 477.343 180.221C482.596 182.986 487.164 186.443 490.59 191.052C494.016 195.66 497.214 200.5 500.868 205.57C505.207 195.891 509.319 186.443 513.43 177.225C514.115 175.612 513.658 174.459 512.745 173.077C503.38 158.559 492.189 146.114 479.855 135.975ZM494.93 194.047C494.473 188.978 503.152 179.068 510.232 176.764C508.177 179.76 496.3 193.356 494.93 194.047Z" fill="#C4C4C4"/>
<path fill-rule="evenodd" clip-rule="evenodd" d="M228.847 347.755C228.847 328.398 225.193 310.653 195.272 281.156C190.248 280.465 185.223 280.004 180.198 279.773C171.062 279.313 161.698 279.543 152.334 280.695C134.976 282.769 117.846 285.996 102.086 293.6C94.3209 297.287 87.6974 301.896 83.3578 309.732C77.6479 319.871 74.9071 326.554 70.1108 337.155C69.1972 339.459 69.1972 340.381 71.7096 341.303C96.8333 350.521 114.877 356.282 132.463 359.969C155.303 364.578 177.229 365.73 213.773 366.422C218.112 366.422 222.223 366.421 226.563 366.191C227.476 362.965 228.847 357.665 228.847 347.755ZM139.544 293.6C110.994 307.658 100.488 323.558 92.9505 344.99L83.8146 342.225C92.4937 321.715 104.142 303.97 128.809 293.6C138.63 289.452 138.858 290.144 149.593 288.761L139.544 293.6Z" fill="white"/>
<path fill-rule="evenodd" clip-rule="evenodd" d="M179.284 369.648C162.84 368.726 146.395 367.343 129.951 365.039C108.253 361.813 87.012 356.743 66.2278 348.677C64.1723 347.986 63.4871 348.677 63.0303 350.29C60.7463 356.282 58.4623 362.504 56.4068 368.496C53.8944 375.87 54.1228 376.792 60.9747 381.17C62.3451 382.092 63.4871 382.783 64.8575 383.475C74.2217 388.314 84.4996 391.079 94.7775 393.384C103.228 395.227 111.907 396.841 120.358 398.223C153.704 403.754 187.278 405.828 220.853 405.828H221.081C221.538 403.293 221.995 398.915 223.137 392.001C224.507 382.092 223.594 374.026 222.908 370.8C208.519 370.8 193.902 370.339 179.284 369.648ZM88.154 360.2C86.3268 366.652 84.2712 373.565 81.9873 380.94C80.8453 383.936 77.4193 385.318 74.4501 384.166C71.481 383.014 70.1106 379.557 71.2526 376.561C73.765 369.878 75.8205 363.426 78.1045 356.973C82.9008 358.356 86.0984 359.508 88.154 360.2Z" fill="white"/>
<path fill-rule="evenodd" clip-rule="evenodd" d="M15.5237 360.43C16.8941 377.022 45.6721 394.767 118.302 407.672C121.957 408.363 125.611 408.824 129.265 409.515C221.995 424.264 314.724 416.429 340.99 388.314C340.533 387.853 339.848 387.162 339.391 386.701C328.428 377.714 315.409 374.026 301.705 368.957C303.304 376.561 304.446 383.244 306.273 389.927C307.644 394.536 306.045 397.762 302.391 400.297C298.279 403.293 293.483 404.906 288.458 406.059C269.501 410.668 249.859 411.589 230.445 411.82C193.673 412.281 157.13 409.976 120.586 404.215C120.13 404.215 119.444 403.985 118.988 403.985C102.086 401.219 82.9009 397.071 67.1414 391.08C60.9747 388.775 55.0364 386.01 50.2401 381.17C47.2709 378.174 46.1289 374.948 47.9561 370.57C50.6969 363.426 53.2092 356.282 55.7216 348.677C44.0733 350.521 35.3942 352.825 24.4312 356.743C21.462 357.895 18.4928 359.047 15.5237 360.43Z" fill="white"/>
<path fill-rule="evenodd" clip-rule="evenodd" d="M292.886 450.218C294.485 446.531 296.084 442.843 297.683 439.156C300.423 432.473 304.078 426.251 308.417 419.799C291.059 423.025 274.158 423.947 257.713 425.099C260.682 455.748 265.479 486.167 258.17 516.586C263.88 507.599 267.534 497.69 273.016 488.011C273.929 490.085 273.473 491.237 273.016 492.389C270.96 502.529 266.621 511.747 261.596 520.734C260.911 522.117 260.226 523.269 259.769 524.882C257.256 537.557 254.972 550.232 252.232 562.676C249.034 577.885 249.948 592.864 254.744 607.613C257.942 617.753 260.682 627.662 260.454 638.493C260.226 646.328 257.942 653.241 253.83 659.694C255.886 652.32 257.485 644.945 256.571 637.341C255.886 629.736 254.516 622.592 251.318 614.526C248.349 634.114 239.898 669.373 231.904 686.195C238.071 685.504 241.497 685.734 249.719 684.813C258.627 649.785 263.652 617.983 262.51 609.456C261.596 600.93 262.51 608.765 262.281 608.304C262.053 608.535 262.053 608.535 261.596 608.765C260.226 609.226 259.769 607.843 259.312 606.922C255.886 601.16 255.886 594.708 255.886 588.025C255.886 585.029 255.886 582.264 255.886 579.268C255.886 578.577 255.886 577.885 256.8 577.655C257.713 577.655 257.942 578.346 257.942 579.037C258.398 586.642 259.997 594.016 261.368 601.391C258.627 578.807 254.972 543.088 265.935 527.648C278.269 510.134 280.096 469.575 280.096 469.575C280.096 469.575 282.608 470.727 298.596 470.727C298.825 468.653 299.053 466.81 299.51 464.736C299.967 462.201 299.281 461.279 296.769 461.279C294.257 461.279 291.516 460.818 289.004 460.357C287.862 460.127 286.491 459.896 286.263 458.283C286.034 456.901 286.491 455.748 287.862 455.287C290.831 454.827 291.744 452.522 292.886 450.218Z" fill="#C4C4C4"/>
<path fill-rule="evenodd" clip-rule="evenodd" d="M362.687 431.408C354.922 442.469 346.243 452.378 334.595 459.522C323.403 466.435 311.07 468.279 298.279 468.049C296.224 468.049 294.625 467.818 294.397 470.814C294.168 472.658 293.94 474.732 293.711 476.575C297.594 476.575 302.162 476.345 307.415 476.114C340.076 474.962 364.971 443.16 364.971 443.16C364.971 443.16 364.971 443.16 376.62 458.831C388.039 474.04 413.848 479.571 440.799 490.172C440.799 488.789 440.571 486.945 440.114 484.871C439.886 483.258 439.429 482.106 437.602 481.645C425.497 477.266 417.503 471.736 405.169 468.049C397.632 465.744 391.237 461.596 385.755 456.065C377.533 447.769 371.138 437.86 365.428 427.259C364.286 428.873 363.601 430.025 362.687 431.408Z" fill="#C4C4C4"/>
<path fill-rule="evenodd" clip-rule="evenodd" d="M302.163 362.965C308.329 365.269 314.496 367.343 319.749 369.417C317.008 366.422 313.811 362.965 310.613 359.508C308.101 356.973 305.132 354.899 302.163 353.056C300.792 352.364 299.194 351.673 298.28 353.286C297.366 354.669 300.792 362.504 302.163 362.965Z" fill="#C4C4C4"/>
<path fill-rule="evenodd" clip-rule="evenodd" d="M412.935 366.191C425.954 345.912 435.775 321.254 443.312 298.9C429.151 320.102 412.707 339.459 392.836 355.821C388.725 359.278 384.157 360.199 378.904 359.278C371.595 357.895 365.2 354.899 359.033 350.521C358.12 349.829 357.434 348.677 356.064 348.907C355.836 359.508 362.002 367.804 366.342 376.561C367.484 379.096 370.681 379.326 373.194 379.326C375.706 379.557 375.021 376.561 375.935 375.178C377.305 373.104 377.305 370.339 379.817 368.726C380.731 372.644 379.132 375.87 378.675 379.557C386.898 379.096 394.435 378.174 401.287 373.335C404.941 370.8 408.824 368.495 412.935 366.191Z" fill="#D98B58"/>
<path fill-rule="evenodd" clip-rule="evenodd" d="M436.003 170.542C445.596 176.303 453.818 185.521 459.756 193.356C460.67 194.508 461.355 195.66 462.04 196.582C462.269 195.66 462.269 194.969 462.497 194.047C462.954 191.051 463.411 188.056 464.096 185.06C464.553 182.525 464.324 181.142 462.04 179.76C454.503 174.459 446.738 169.62 438.287 165.702C416.589 155.793 394.206 152.336 371.595 153.028C371.367 153.719 371.367 154.18 371.138 154.871C395.577 153.028 418.873 160.402 436.003 170.542Z" fill="#D98B58"/>
<path fill-rule="evenodd" clip-rule="evenodd" d="M491.96 250.046C493.559 252.581 492.874 255.116 490.59 257.42C490.133 254.885 490.818 252.12 488.306 250.968C486.936 250.276 485.337 250.507 483.966 250.968C481.911 251.889 480.997 252.581 482.824 254.885C486.022 258.803 485.108 263.181 481.454 265.255C485.108 265.025 489.22 262.951 492.417 260.646C492.189 259.725 492.646 258.803 493.331 258.112C494.93 255.577 496.528 253.042 497.442 250.046C498.127 247.972 498.355 245.667 497.899 243.593C496.985 238.524 492.874 236.449 488.534 239.215C485.565 241.058 483.738 243.593 481.911 247.28C486.25 245.898 489.676 246.128 491.96 250.046Z" fill="#D98B58"/>
<path fill-rule="evenodd" clip-rule="evenodd" d="M549.745 604.473C545.405 607.7 531.016 609.774 511.831 609.313C513.429 635.353 511.831 661.855 506.349 688.356C517.541 685.591 528.047 683.286 538.553 680.751C540.152 680.29 541.066 679.368 541.522 677.755C543.578 672.225 545.405 666.924 546.319 661.163C549.059 642.267 549.745 623.37 549.745 604.473ZM525.078 672.225C528.732 669.229 536.269 666.003 540.837 666.003C535.584 669.92 530.331 670.612 525.078 672.225ZM513.429 680.521C521.423 677.525 529.417 674.529 537.411 671.764C538.325 671.533 539.01 671.303 539.695 671.994C540.38 673.146 539.467 673.838 538.782 674.299C536.041 676.603 532.843 677.525 529.417 678.447C524.164 679.599 519.139 680.521 513.886 681.673C513.658 681.212 513.429 680.751 513.429 680.521Z" fill="#C4C4C4"/>
<path fill-rule="evenodd" clip-rule="evenodd" d="M358.804 417.811C332.31 425.416 312.668 443.621 290.97 459.522C293.94 460.214 295.995 459.292 298.279 459.061C312.668 456.757 326.829 453.761 337.107 441.778C339.847 438.552 343.045 436.017 345.786 433.021C350.354 428.181 355.15 423.573 358.804 417.811Z" fill="#911B19"/>
<path fill-rule="evenodd" clip-rule="evenodd" d="M376.163 423.573C380.959 436.708 389.41 446.387 401.972 451.918C410.879 455.835 420.244 459.061 428.923 464.131C423.67 457.448 418.645 450.765 413.163 444.313C403.799 433.482 393.521 423.342 380.274 417.35C379.132 416.89 377.762 415.507 376.62 416.659C375.478 417.811 375.021 419.655 375.249 421.268C375.478 421.959 375.706 422.651 376.163 423.573Z" fill="#911B19"/>
<path fill-rule="evenodd" clip-rule="evenodd" d="M58.6902 388.084C52.0667 383.475 34.7085 374.026 36.0789 363.887C47.4988 374.257 46.8136 374.257 61.8878 382.092C63.715 383.475 65.7705 385.318 64.4002 387.162C63.0298 389.005 60.5174 389.466 58.6902 388.084Z" fill="#20201E"/>
</g>
<defs>
<filter id="filter0_d_14_134" x="0" y="0" width="684.173" height="748" filterUnits="userSpaceOnUse" color-interpolation-filters="sRGB">
<feFlood flood-opacity="0" result="BackgroundImageFix"/>
<feColorMatrix in="SourceAlpha" type="matrix" values="0 0 0 0 0 0 0 0 0 0 0 0 0 0 0 0 0 0 127 0" result="hardAlpha"/>
<feOffset dy="4"/>
<feGaussianBlur stdDeviation="2"/>
<feComposite in2="hardAlpha" operator="out"/>
<feColorMatrix type="matrix" values="0 0 0 0 0 0 0 0 0 0 0 0 0 0 0 0 0 0 0.25 0"/>
<feBlend mode="normal" in2="BackgroundImageFix" result="effect1_dropShadow_14_134"/>
<feBlend mode="normal" in="SourceGraphic" in2="effect1_dropShadow_14_134" result="shape"/>
</filter>
</defs>
</svg>
